<svg id="Layer_1" data-name="Layer 1" xmlns="http://www.w3.org/2000/svg" viewBox="0 0 524.75 170.22"><defs><style>.cls-1{fill:#fff;}.cls-1,.cls-5{stroke:#231f20;stroke-width:4px;}.cls-1,.cls-3,.cls-4,.cls-5{stroke-miterlimit:10;}.cls-2{fill:#231f20;}.cls-3,.cls-4,.cls-5{fill:none;}.cls-3,.cls-4{stroke:#010101;}.cls-3{stroke-width:5px;}.cls-4{stroke-width:2px;}.cls-5{opacity:0.01;}</style></defs><path class="cls-1" d="M221.2,260.65" transform="translate(-78.03 -167.44)"/><path class="cls-1" d="M256.16,275" transform="translate(-78.03 -167.44)"/><path class="cls-1" d="M80,288.29" transform="translate(-78.03 -167.44)"/><path class="cls-1" d="M136.85,204.38" transform="translate(-78.03 -167.44)"/><path class="cls-1" d="M130.63,228" transform="translate(-78.03 -167.44)"/><path class="cls-2" d="M315.25,249.75a21.59,21.59,0,0,1-8.9,1.6c-9.5,0-16.65-6-16.65-17,0-10.56,7.15-17.71,17.6-17.71a18.06,18.06,0,0,1,8,1.5l-1.05,3.55a15.84,15.84,0,0,0-6.8-1.4c-7.9,0-13.15,5-13.15,13.91,0,8.25,4.75,13.55,12.95,13.55a17.41,17.41,0,0,0,7.1-1.4Z" transform="translate(-78.03 -167.44)"/><path class="cls-2" d="M341.9,238.55c0,8.95-6.2,12.85-12,12.85-6.55,0-11.6-4.8-11.6-12.45,0-8.11,5.3-12.86,12-12.86C337.2,226.09,341.9,231.15,341.9,238.55Zm-19.2.25c0,5.3,3.05,9.3,7.35,9.3s7.35-3.95,7.35-9.4c0-4.1-2-9.3-7.25-9.3S322.7,234.2,322.7,238.8Z" transform="translate(-78.03 -167.44)"/><path class="cls-2" d="M347.45,233.2c0-2.51-.05-4.55-.2-6.56h3.9l.25,4h.1a8.89,8.89,0,0,1,8-4.56c3.35,0,8.55,2,8.55,10.31v14.45h-4.4V236.9c0-3.9-1.45-7.15-5.6-7.15a6.24,6.24,0,0,0-5.9,4.5,6.33,6.33,0,0,0-.3,2.05v14.55h-4.4Z" transform="translate(-78.03 -167.44)"/><path class="cls-2" d="M375.2,233.2c0-2.51-.05-4.55-.2-6.56h3.9l.25,4h.1a8.89,8.89,0,0,1,8-4.56c3.35,0,8.55,2,8.55,10.31v14.45h-4.4V236.9c0-3.9-1.45-7.15-5.6-7.15a6.24,6.24,0,0,0-5.9,4.5,6.33,6.33,0,0,0-.3,2.05v14.55h-4.4Z" transform="translate(-78.03 -167.44)"/><path class="cls-2" d="M405.4,239.55c.1,5.95,3.9,8.4,8.3,8.4a15.91,15.91,0,0,0,6.7-1.25l.75,3.15a19.6,19.6,0,0,1-8,1.5c-7.45,0-11.9-4.9-11.9-12.2s4.3-13.06,11.35-13.06c7.9,0,10,6.95,10,11.41a16.6,16.6,0,0,1-.15,2.05Zm12.9-3.15c.05-2.8-1.15-7.15-6.1-7.15-4.45,0-6.4,4.1-6.75,7.15Z" transform="translate(-78.03 -167.44)"/><path class="cls-2" d="M445.25,250a16.21,16.21,0,0,1-6.95,1.4c-7.3,0-12.05-4.95-12.05-12.35s5.1-12.86,13-12.86a14.71,14.71,0,0,1,6.1,1.25l-1,3.4a10.22,10.22,0,0,0-5.1-1.14c-5.55,0-8.55,4.1-8.55,9.15,0,5.6,3.6,9,8.4,9a12.5,12.5,0,0,0,5.4-1.2Z" transform="translate(-78.03 -167.44)"/><path class="cls-2" d="M456.35,219.69v6.95h6.3V230h-6.3v13.05c0,3,.85,4.7,3.3,4.7a9.79,9.79,0,0,0,2.55-.3l.2,3.3a10.77,10.77,0,0,1-3.9.6,6.1,6.1,0,0,1-4.75-1.85c-1.25-1.3-1.7-3.45-1.7-6.3V230H448.3v-3.36h3.75v-5.8Z" transform="translate(-78.03 -167.44)"/><path class="cls-2" d="M489.2,238.55c0,8.95-6.2,12.85-12.05,12.85-6.55,0-11.6-4.8-11.6-12.45,0-8.11,5.3-12.86,12-12.86C484.5,226.09,489.2,231.15,489.2,238.55Zm-19.2.25c0,5.3,3.05,9.3,7.35,9.3s7.35-3.95,7.35-9.4c0-4.1-2.05-9.3-7.25-9.3S470,234.2,470,238.8Z" transform="translate(-78.03 -167.44)"/><path class="cls-2" d="M494.75,233.2c0-2.51-.05-4.55-.2-6.56h3.85l.2,3.9h.15a8.34,8.34,0,0,1,7.6-4.45,7.15,7.15,0,0,1,6.85,4.85h.1a10,10,0,0,1,2.7-3.15,8.26,8.26,0,0,1,5.35-1.7c3.2,0,7.95,2.1,7.95,10.51v14.25H525v-13.7c0-4.65-1.7-7.46-5.25-7.46a5.69,5.69,0,0,0-5.2,4,7.25,7.25,0,0,0-.35,2.2v14.95h-4.3v-14.5c0-3.85-1.7-6.66-5-6.66-2.75,0-4.75,2.21-5.45,4.41a6.06,6.06,0,0,0-.35,2.15v14.6h-4.3Z" transform="translate(-78.03 -167.44)"/><path class="cls-2" d="M541.35,219.84a2.73,2.73,0,0,1-5.45,0,2.68,2.68,0,0,1,2.75-2.75A2.61,2.61,0,0,1,541.35,219.84Zm-4.9,31V226.64h4.4v24.21Z" transform="translate(-78.03 -167.44)"/><path class="cls-2" d="M565.4,250a16.21,16.21,0,0,1-6.95,1.4c-7.3,0-12.05-4.95-12.05-12.35s5.1-12.86,13-12.86a14.71,14.71,0,0,1,6.1,1.25l-1,3.4a10.22,10.22,0,0,0-5.1-1.14c-5.55,0-8.55,4.1-8.55,9.15,0,5.6,3.6,9,8.4,9a12.5,12.5,0,0,0,5.4-1.2Z" transform="translate(-78.03 -167.44)"/><path class="cls-2" d="M570,246.35a11.53,11.53,0,0,0,5.8,1.75c3.2,0,4.7-1.6,4.7-3.6s-1.25-3.25-4.5-4.45c-4.35-1.55-6.4-4-6.4-6.85,0-3.91,3.15-7.11,8.35-7.11a12.08,12.08,0,0,1,6,1.5l-1.1,3.2a9.43,9.43,0,0,0-5-1.39c-2.6,0-4,1.5-4,3.3,0,2,1.45,2.9,4.6,4.1,4.2,1.6,6.35,3.7,6.35,7.3,0,4.25-3.3,7.25-9.05,7.25a13.8,13.8,0,0,1-6.8-1.65Z" transform="translate(-78.03 -167.44)"/><path class="cls-2" d="M433.15,272.33l1.92,7.38c.42,1.62.81,3.12,1.08,4.62h.09c.33-1.47.81-3,1.29-4.59l2.37-7.41h2.22l2.25,7.26c.54,1.74,1,3.27,1.29,4.74h.09a43.66,43.66,0,0,1,1.11-4.71l2.07-7.29h2.61l-4.68,14.52h-2.4l-2.22-6.93a48.39,48.39,0,0,1-1.29-4.77h-.06a43,43,0,0,1-1.32,4.8l-2.34,6.9h-2.4l-4.38-14.52Z" transform="translate(-78.03 -167.44)"/><path class="cls-2" d="M457.12,268.25a1.64,1.64,0,0,1-3.27,0,1.61,1.61,0,0,1,1.65-1.65A1.57,1.57,0,0,1,457.12,268.25Zm-2.94,18.6V272.33h2.64v14.52Z" transform="translate(-78.03 -167.44)"/><path class="cls-2" d="M464.38,268.16v4.17h3.78v2h-3.78v7.83c0,1.8.51,2.82,2,2.82a5.87,5.87,0,0,0,1.53-.18l.12,2a6.46,6.46,0,0,1-2.34.36,3.66,3.66,0,0,1-2.85-1.11c-.75-.78-1-2.07-1-3.78v-7.92h-2.25v-2h2.25v-3.48Z" transform="translate(-78.03 -167.44)"/><path class="cls-2" d="M471.13,265.55h2.64v9.06h.06a4.9,4.9,0,0,1,1.89-1.86,5.43,5.43,0,0,1,2.7-.75c1.95,0,5.07,1.2,5.07,6.21v8.64h-2.64v-8.34c0-2.34-.87-4.32-3.36-4.32a3.79,3.79,0,0,0-3.54,2.64,3.2,3.2,0,0,0-.18,1.26v8.76h-2.64Z" transform="translate(-78.03 -167.44)"/><path class="cls-2" d="M494.23,266.87a30.25,30.25,0,0,1,5-.39c2.58,0,4.47.6,5.67,1.68a5.44,5.44,0,0,1,1.77,4.23,6,6,0,0,1-1.56,4.32,8.38,8.38,0,0,1-6.18,2.22,9,9,0,0,1-2.1-.18v8.1h-2.61Zm2.61,9.75a8.75,8.75,0,0,0,2.16.21c3.15,0,5.07-1.53,5.07-4.32s-1.89-4-4.77-4a11,11,0,0,0-2.46.21Z" transform="translate(-78.03 -167.44)"/><path class="cls-2" d="M511.18,272.33l3.18,8.58c.33,1,.69,2.1.93,3h.06c.27-.87.57-2,.93-3l2.88-8.52H522l-4,10.35c-1.89,5-3.18,7.53-5,9.09a7.15,7.15,0,0,1-3.24,1.71l-.66-2.22a7,7,0,0,0,2.31-1.29,8,8,0,0,0,2.22-2.94,1.9,1.9,0,0,0,.21-.63,2.3,2.3,0,0,0-.18-.69l-5.37-13.38Z" transform="translate(-78.03 -167.44)"/><path class="cls-2" d="M527.38,268.85h-6.15v-2.22h15v2.22H530v18h-2.64Z" transform="translate(-78.03 -167.44)"/><path class="cls-2" d="M549.37,279.47c0,5.37-3.72,7.71-7.23,7.71-3.93,0-7-2.88-7-7.47,0-4.86,3.18-7.71,7.2-7.71S549.37,275,549.37,279.47Zm-11.52.15c0,3.18,1.83,5.58,4.41,5.58s4.41-2.37,4.41-5.64c0-2.46-1.23-5.58-4.35-5.58S537.85,276.86,537.85,279.62Z" transform="translate(-78.03 -167.44)"/><path class="cls-2" d="M552.7,276.86c0-1.71,0-3.18-.12-4.53h2.31l.09,2.85h.12a4.36,4.36,0,0,1,4-3.18,2.86,2.86,0,0,1,.75.09v2.49a4,4,0,0,0-.9-.09c-1.86,0-3.18,1.41-3.54,3.39a7.43,7.43,0,0,0-.12,1.23v7.74H552.7Z" transform="translate(-78.03 -167.44)"/><path class="cls-2" d="M572.56,286.31a9.72,9.72,0,0,1-4.17.84c-4.38,0-7.23-3-7.23-7.41A7.38,7.38,0,0,1,569,272a8.82,8.82,0,0,1,3.66.75l-.6,2a6.12,6.12,0,0,0-3.06-.69c-3.33,0-5.13,2.46-5.13,5.49,0,3.36,2.16,5.43,5,5.43a7.5,7.5,0,0,0,3.24-.72Z" transform="translate(-78.03 -167.44)"/><path class="cls-2" d="M575.65,265.55h2.64v9.06h.06a4.9,4.9,0,0,1,1.89-1.86,5.43,5.43,0,0,1,2.7-.75c1.95,0,5.07,1.2,5.07,6.21v8.64h-2.64v-8.34c0-2.34-.87-4.32-3.36-4.32a3.79,3.79,0,0,0-3.54,2.64,3.2,3.2,0,0,0-.18,1.26v8.76h-2.64Z" transform="translate(-78.03 -167.44)"/><path class="cls-3" d="M148,323.87l2.58-15.31,19.67-11.95a3.72,3.72,0,0,0,1.32-1.38l4.12-7.46,24-4.59a7.36,7.36,0,0,0,5.91-5.73l1.72-8.85h14.09a9.09,9.09,0,0,0,5.78-2.07l17.56-13.34a9.43,9.43,0,0,0,3.78-7.5V228.26a10.07,10.07,0,0,0-3.84-8.49l-34.43-27.42a6.83,6.83,0,0,0-4-1.47l-51.84-2.22L150.62,191,131,192.34A10,10,0,0,0,124.9,195l-18.83,17.43a6.63,6.63,0,0,0-1.62,2.32l-4,9.76-5.49,5.9a10.23,10.23,0,0,0-2.75,6.2l-1.64,20.95a12.73,12.73,0,0,0,1.06,6.2l3,6.91A3.68,3.68,0,0,0,98,272.77l7.43,0a3.19,3.19,0,0,1,3.23,2.88l.73,9.57a5.21,5.21,0,0,0,2.38,3.95l20.87,13.57a3.29,3.29,0,0,1,1.5,3.25l-2.4,16.22a5.49,5.49,0,0,0,4.72,6.14l4.08.65A6.49,6.49,0,0,0,148,323.87Z" transform="translate(-78.03 -167.44)"/><polyline class="cls-4" points="72.6 23.53 77.91 45.48 94.81 51.72 95.77 78.98 129.32 101.15"/><polyline class="cls-4" points="77.91 45.48 68.97 63.5 45.8 88.68 45.8 103.93 27.41 103.93"/><line class="cls-4" x1="22.38" y1="57.03" x2="45.8" y2="88.68"/><polyline class="cls-4" points="99.89 119.91 77.91 114.07 45.8 103.93"/><line class="cls-4" x1="78.85" y1="114.37" x2="55.75" y2="136.54"/><rect class="cls-5" x="2" y="2" width="520.75" height="166.22"/></svg>