<svg id="Layer_1" data-name="Layer 1" xmlns="http://www.w3.org/2000/svg" viewBox="0 0 322.69 301"><defs><style>.cls-1,.cls-2,.cls-3{fill:none;stroke-miterlimit:10;}.cls-1,.cls-2{stroke:#010101;}.cls-1{stroke-width:5px;}.cls-2{stroke-width:2px;}.cls-3{stroke:#231f20;opacity:0.03;}</style></defs><path class="cls-1" d="M266.84,520.13l4.74-29.44,36.21-23a7,7,0,0,0,2.44-2.65l7.58-14.35L362,441.86a13.82,13.82,0,0,0,10.88-11l3.18-17H402a16.17,16.17,0,0,0,10.63-4l32.34-25.66a18.39,18.39,0,0,0,7-14.43l0-33.54a19.68,19.68,0,0,0-7.06-16.32l-63.39-52.76a12.28,12.28,0,0,0-7.29-2.82L278.7,260l-7.12,4.44-36.14,2.64a18,18,0,0,0-11.22,5l-36.64,35.45-8.44,21.33L169,340.25A20.16,20.16,0,0,0,164,352.18l-3,40.31a25.54,25.54,0,0,0,2,11.93l5.62,13.29a6.74,6.74,0,0,0,6.17,4.11l13.7.06a6,6,0,0,1,5.93,5.54l1.35,18.41a10.09,10.09,0,0,0,4.39,7.6l38.41,26.1a6.48,6.48,0,0,1,2.77,6.27L236.82,517a10.5,10.5,0,0,0,8.69,11.83l7.52,1.24A12,12,0,0,0,266.84,520.13Z" transform="translate(-141.47 -244.63)"/><polyline class="cls-2" points="130.12 19.84 139.89 62.07 171.01 74.07 172.78 126.51 234.56 169.18"/><polyline class="cls-2" points="139.89 62.07 123.45 96.73 80.78 145.18 80.78 174.51 46.92 177.25"/><line class="cls-2" x1="37.67" y1="84.29" x2="80.78" y2="145.18"/><polyline class="cls-2" points="180.38 205.26 139.89 194.03 80.78 174.51"/><line class="cls-2" x1="141.64" y1="194.61" x2="99.1" y2="237.26"/><rect class="cls-3" x="0.5" y="0.5" width="321.69" height="300"/></svg>