<?xml version="1.0" standalone="no"?>
<!DOCTYPE svg PUBLIC "-//W3C//DTD SVG 20010904//EN"
 "http://www.w3.org/TR/2001/REC-SVG-20010904/DTD/svg10.dtd">
<svg version="1.0" xmlns="http://www.w3.org/2000/svg"
 width="1994.000000pt" height="683.000000pt" viewBox="0 0 1994.000000 683.000000"
 preserveAspectRatio="xMidYMid meet">
<metadata>
Created by potrace 1.16, written by Peter Selinger 2001-2019
</metadata>
<g transform="translate(0.000000,683.000000) scale(0.100000,-0.100000)"
fill="#000000" stroke="none">
<path d="M2820 6451 l-85 -49 -430 -30 c-467 -33 -494 -37 -596 -103 -71 -45
-878 -795 -914 -849 -17 -25 -68 -137 -115 -250 l-84 -205 -120 -128 c-66 -71
-129 -140 -139 -155 -35 -52 -74 -137 -86 -187 -13 -59 -81 -910 -81 -1017 0
-108 22 -181 113 -387 127 -289 146 -301 449 -301 176 0 179 0 187 -22 5 -13
16 -117 25 -233 9 -132 21 -228 32 -258 30 -87 82 -128 544 -427 239 -155 443
-289 452 -298 16 -16 14 -38 -37 -382 -47 -313 -53 -373 -45 -423 16 -102 88
-195 185 -242 73 -34 306 -68 384 -56 116 19 229 99 276 196 21 41 39 125 81
371 29 175 57 321 61 325 5 4 184 114 398 244 215 130 404 251 422 268 17 18
68 98 113 179 45 82 85 148 89 148 3 0 228 42 499 94 534 103 561 111 647 188
80 73 105 128 145 328 l36 175 315 5 314 5 61 28 c37 17 227 155 484 350 460
349 475 364 531 504 l24 58 0 480 c0 446 -1 484 -19 539 -25 75 -84 165 -144
221 -91 84 -1487 1190 -1530 1212 -24 12 -66 27 -95 33 -42 8 -2104 101 -2227
100 -23 0 -64 -17 -120 -49z m1301 -205 c861 -37 1010 -46 1037 -60 34 -17
1441 -1134 1500 -1189 18 -18 46 -58 62 -91 l30 -59 0 -436 c0 -270 -4 -450
-10 -473 -21 -75 -71 -119 -480 -431 -311 -236 -416 -311 -454 -322 -40 -12
-118 -15 -397 -15 l-348 0 -638 421 c-351 232 -639 422 -640 423 -1 1 -11 257
-22 570 -12 313 -23 571 -25 573 -2 2 -159 62 -350 132 -190 70 -348 130 -351
132 -13 14 -194 794 -186 802 5 5 31 22 58 38 42 24 58 28 128 28 44 0 533
-19 1086 -43z m-1291 -343 c40 -164 84 -346 98 -405 l26 -106 -181 -364 -180
-364 -462 -502 c-254 -276 -465 -502 -469 -502 -8 1 -875 1173 -881 1191 -2 6
38 111 89 234 l92 223 420 388 c230 214 438 399 461 411 23 12 60 25 82 29 30
5 643 53 811 63 21 1 27 -19 94 -296z m514 -687 c169 -62 309 -116 313 -119 3
-3 14 -257 25 -564 14 -389 23 -561 31 -569 7 -6 307 -206 667 -444 360 -237
656 -433 656 -433 1 -1 -16 -92 -37 -201 -25 -128 -47 -211 -60 -233 -43 -70
-66 -77 -625 -184 -283 -54 -524 -99 -535 -99 -62 0 -788 207 -1391 397 l-688
217 0 293 0 294 476 517 476 517 182 363 c99 199 186 362 192 362 5 0 149 -51
318 -114z m-2175 -1035 l451 -609 -2 -289 -3 -288 -525 2 c-486 3 -525 4 -541
20 -13 15 -131 273 -153 338 -26 74 -25 125 9 564 43 544 41 531 74 593 19 37
225 276 238 278 1 0 204 -274 452 -609z m1126 -1472 c352 -111 644 -205 648
-209 4 -4 -177 -185 -404 -402 l-412 -395 -469 305 c-312 203 -474 314 -483
331 -8 16 -20 113 -30 251 -14 193 -20 232 -39 273 l-23 47 286 0 286 0 640
-201z m1069 -319 c165 -44 313 -83 328 -88 l26 -7 -83 -149 -82 -149 -434
-264 c-239 -145 -435 -267 -437 -272 -2 -5 -29 -164 -61 -354 -40 -239 -64
-355 -77 -378 -12 -19 -40 -43 -68 -58 l-49 -25 -121 18 c-135 19 -172 35
-200 87 l-19 36 51 349 c52 352 60 440 42 474 -8 16 51 77 428 439 240 231
441 420 446 421 4 0 144 -36 310 -80z"/>
<path d="M9108 4969 c-254 -33 -459 -216 -525 -469 -22 -87 -22 -281 0 -371
56 -228 209 -382 431 -434 117 -28 338 -17 459 22 54 17 52 8 26 106 -9 34
-13 38 -32 33 -114 -33 -153 -39 -242 -40 -121 0 -202 21 -284 74 -136 88
-201 229 -201 433 1 410 306 606 731 471 12 -4 19 9 32 55 9 33 17 65 17 69 0
15 -99 42 -190 52 -96 11 -128 11 -222 -1z"/>
<path d="M17818 4931 c-28 -25 -33 -36 -33 -75 0 -65 35 -99 101 -99 40 0 51
4 76 31 87 99 -46 231 -144 143z"/>
<path d="M14713 4838 l-73 -20 0 -109 0 -109 -70 0 -70 0 0 -60 0 -60 69 0 69
0 4 -307 c6 -336 10 -367 66 -427 45 -47 97 -66 189 -66 45 0 93 4 107 10 23
8 26 15 26 54 0 72 -4 77 -64 70 -72 -9 -121 13 -144 63 -14 33 -17 76 -17
318 l0 280 118 3 117 3 0 59 0 59 -117 3 -118 3 -3 128 c-1 70 -6 127 -10 126
-4 0 -40 -10 -79 -21z"/>
<path d="M9950 4605 c-183 -52 -299 -203 -316 -414 -18 -214 75 -397 241 -475
130 -62 321 -50 441 27 139 89 216 264 201 459 -15 188 -111 328 -267 389 -73
28 -223 35 -300 14z m238 -134 c53 -27 107 -91 134 -160 17 -45 22 -77 22
-161 1 -134 -23 -200 -98 -275 -133 -132 -328 -86 -412 97 -26 58 -29 72 -28
173 0 132 22 199 87 270 75 82 198 106 295 56z"/>
<path d="M11080 4611 c-58 -18 -118 -57 -162 -104 l-48 -51 0 72 0 72 -76 0
-77 0 6 -82 c4 -46 7 -251 7 -455 l0 -373 79 0 80 0 3 308 3 307 29 53 c46 83
111 122 202 122 66 0 123 -26 154 -70 45 -63 50 -104 50 -422 l0 -298 85 0 85
0 0 288 c0 158 -5 316 -11 352 -29 185 -146 291 -317 289 -37 0 -78 -4 -92 -8z"/>
<path d="M12100 4603 c-59 -20 -120 -63 -158 -110 l-31 -38 -1 73 0 72 -77 0
-76 0 6 -97 c4 -54 7 -259 7 -455 l0 -358 80 0 80 0 0 288 c0 333 5 364 71
432 51 52 93 70 164 70 65 0 124 -26 152 -67 47 -70 48 -73 51 -405 l3 -318
85 0 84 0 0 283 c0 155 -5 313 -10 352 -28 187 -145 296 -318 295 -37 -1 -87
-8 -112 -17z"/>
<path d="M13045 4607 c-196 -66 -304 -235 -305 -477 0 -197 75 -332 227 -407
72 -36 80 -37 198 -41 121 -4 238 12 301 40 21 10 21 11 7 67 -8 31 -16 57
-17 59 -2 1 -23 -5 -47 -13 -168 -60 -370 -27 -445 73 -36 46 -64 123 -64 172
l0 40 315 0 315 0 7 27 c3 16 1 67 -5 116 -19 153 -83 258 -193 317 -56 30
-73 34 -158 37 -62 2 -110 -2 -136 -10z m205 -129 c24 -13 56 -39 72 -58 28
-36 64 -151 54 -176 -4 -12 -47 -14 -242 -14 l-236 0 7 38 c17 92 80 181 150
213 57 26 140 25 195 -3z"/>
<path d="M14052 4610 c-174 -32 -322 -171 -361 -341 -15 -63 -13 -215 3 -274
33 -125 114 -223 228 -275 64 -30 85 -34 179 -38 77 -3 128 0 182 12 103 23
109 29 94 93 -7 28 -14 54 -17 57 -3 3 -34 -4 -69 -14 -126 -40 -254 -20 -335
51 -114 100 -145 286 -73 437 61 130 210 196 364 160 37 -9 77 -19 88 -23 18
-5 23 1 38 48 9 29 17 58 17 64 0 32 -232 61 -338 43z"/>
<path d="M15471 4605 c-202 -57 -321 -229 -321 -465 0 -153 42 -261 137 -351
95 -90 225 -128 368 -108 211 30 350 177 375 399 20 178 -29 330 -140 433 -79
73 -144 98 -270 103 -65 3 -112 -1 -149 -11z m239 -138 c54 -28 100 -86 131
-164 17 -46 22 -78 22 -153 0 -75 -5 -107 -22 -153 -32 -81 -77 -136 -140
-169 -132 -69 -280 -9 -349 141 -37 80 -43 221 -13 319 53 176 220 257 371
179z"/>
<path d="M16567 4606 c-57 -21 -114 -62 -146 -106 -27 -37 -29 -39 -35 -17 -3
12 -6 43 -6 70 l0 47 -70 0 -70 0 0 -455 0 -455 80 0 80 0 0 283 c0 312 5 350
60 425 29 41 79 73 132 86 45 10 116 -13 152 -50 60 -62 66 -100 66 -440 l0
-304 80 0 80 0 0 298 c0 342 4 367 75 437 104 104 259 69 310 -72 16 -41 19
-92 23 -355 l4 -308 79 0 79 0 0 278 c0 152 -5 310 -10 351 -17 128 -76 226
-165 274 -33 18 -57 22 -135 22 -87 0 -100 -3 -148 -30 -53 -29 -142 -116
-142 -139 0 -6 -13 11 -28 39 -31 56 -95 109 -150 125 -51 14 -149 12 -195 -4z"/>
<path d="M18552 4610 c-174 -32 -322 -171 -361 -341 -15 -63 -13 -215 3 -274
33 -125 114 -223 228 -275 64 -30 85 -34 179 -38 77 -3 128 0 182 12 106 24
110 28 93 95 -8 29 -16 55 -18 57 -2 2 -32 -6 -67 -16 -126 -40 -254 -20 -335
51 -114 100 -145 286 -73 437 61 130 210 196 364 160 37 -9 77 -19 88 -23 18
-5 23 1 38 48 9 29 17 58 17 64 0 32 -232 61 -338 43z"/>
<path d="M19245 4607 c-90 -30 -151 -81 -179 -149 -20 -46 -21 -148 -2 -191
20 -48 83 -104 153 -137 35 -17 92 -44 127 -60 74 -35 106 -76 106 -134 0 -55
-23 -91 -75 -116 -63 -31 -166 -25 -250 14 -32 14 -62 23 -65 19 -8 -8 -40
-101 -40 -114 0 -4 26 -18 58 -30 79 -30 255 -38 335 -15 123 36 197 132 197
255 -1 129 -62 200 -233 272 -56 24 -118 58 -137 75 -30 28 -35 39 -35 78 0
111 141 158 284 95 25 -11 48 -16 51 -12 6 6 40 100 40 109 0 1 -24 12 -52 24
-66 28 -220 37 -283 17z"/>
<path d="M17810 4145 l0 -455 80 0 80 0 0 455 0 455 -80 0 -80 0 0 -455z"/>
<path d="M15370 2745 l0 -395 50 0 50 0 0 178 c0 200 7 228 70 270 42 28 108
26 142 -4 41 -37 48 -73 48 -264 l0 -180 50 0 50 0 0 198 c0 197 0 199 -27
253 -20 39 -39 60 -68 76 -77 43 -192 23 -244 -43 l-21 -27 0 167 0 166 -50 0
-50 0 0 -395z"/>
<path d="M19280 2745 l0 -395 50 0 50 0 0 173 c0 162 2 177 23 217 51 97 176
107 224 17 15 -26 18 -65 21 -219 l4 -188 50 0 50 0 -4 203 c-3 172 -6 207
-22 237 -41 79 -89 110 -167 110 -58 0 -133 -30 -152 -61 -7 -11 -15 -19 -19
-19 -5 0 -8 72 -8 160 l0 160 -50 0 -50 0 0 -395z"/>
<path d="M16285 3102 l-50 -7 -3 -372 -2 -373 50 0 50 0 0 148 0 147 90 1 c82
0 95 3 157 35 59 30 71 41 96 89 25 49 28 63 25 126 -7 141 -85 203 -266 209
-53 2 -119 0 -147 -3z m216 -83 c21 -7 51 -25 66 -41 25 -26 28 -36 28 -99 0
-68 -1 -72 -37 -104 -40 -37 -91 -55 -155 -55 -75 0 -73 -5 -73 155 0 105 3
145 13 148 23 10 120 7 158 -4z"/>
<path d="M17240 3060 l0 -40 115 0 115 0 0 -335 0 -335 50 0 50 0 0 335 0 335
120 0 120 0 0 40 0 40 -285 0 -285 0 0 -40z"/>
<path d="M15070 3035 l-45 -11 -3 -67 -3 -67 -39 0 c-39 0 -40 -1 -40 -35 0
-34 1 -35 40 -35 l40 0 0 -177 c0 -200 8 -241 51 -277 27 -23 40 -26 105 -26
l74 0 0 40 0 40 -43 0 c-80 0 -82 3 -85 214 l-3 186 70 0 71 0 0 35 0 35 -70
0 -69 0 -3 78 -3 78 -45 -11z"/>
<path d="M17909 2872 c-60 -31 -111 -96 -130 -165 -6 -23 -9 -76 -7 -118 6
-103 43 -171 118 -216 90 -55 190 -54 285 2 135 79 165 304 58 443 -63 83
-219 109 -324 54z m211 -72 c73 -52 98 -200 50 -294 -31 -61 -65 -87 -122 -93
-102 -12 -178 77 -178 208 0 89 41 166 105 195 39 18 108 10 145 -16z"/>
<path d="M18586 2880 c-17 -10 -40 -36 -53 -57 l-23 -38 0 53 0 52 -45 0 -45
0 0 -270 0 -270 50 0 50 0 0 151 c0 82 5 169 11 193 17 69 72 116 135 116 22
0 24 4 24 45 l0 45 -37 0 c-21 0 -51 -9 -67 -20z"/>
<path d="M18924 2882 c-88 -31 -143 -88 -169 -176 -43 -144 12 -287 129 -342
41 -19 67 -24 131 -23 44 0 96 6 115 12 31 11 35 16 32 42 -5 43 -12 46 -67
29 -142 -44 -270 67 -252 218 14 118 94 184 210 176 34 -3 69 -8 78 -12 13 -5
19 1 28 25 16 45 16 45 -33 58 -64 16 -143 13 -202 -7z"/>
<path d="M13850 2878 c0 -7 35 -128 78 -268 l78 -255 48 0 48 0 34 95 c19 52
49 147 68 210 l34 115 12 -45 c6 -25 35 -119 63 -210 l53 -165 49 0 49 0 87
268 87 267 -52 0 -51 0 -52 -187 c-28 -104 -55 -203 -58 -222 -7 -32 -10 -26
-39 75 -18 60 -47 160 -66 222 l-35 113 -45 -3 -44 -3 -32 -100 c-18 -55 -48
-152 -67 -215 -20 -63 -38 -108 -41 -100 -5 16 -106 410 -106 416 0 2 -22 4
-50 4 -33 0 -50 -4 -50 -12z"/>
<path d="M14740 2620 l0 -270 45 0 45 0 0 270 0 270 -45 0 -45 0 0 -270z"/>
<path d="M16779 2843 c10 -26 58 -146 105 -265 86 -215 87 -218 71 -248 -25
-48 -84 -109 -128 -131 -27 -14 -37 -25 -33 -36 3 -8 9 -26 12 -39 8 -32 30
-30 85 4 60 39 110 99 153 185 28 58 226 559 226 573 0 2 -24 4 -53 4 l-52 0
-70 -211 -70 -211 -76 209 -76 208 -56 3 -57 3 19 -48z"/>
</g>
</svg>
